<svg width="128" height="128" viewBox="0 0 128 128" xmlns="http://www.w3.org/2000/svg">
<g transform="translate(64,64) scale(1.05)">
<path d="M-48 8 L-48 2 Q-48-8-40-8 L-34-8 L-28-22 Q-26-26-20-26 L20-26 Q26-26 28-22 L34-8 L40-8 Q48-8 48 2 L48 8 Q48 16 40 16 L-40 16 Q-48 16-48 8Z" fill="#E53935"/>
<path d="M-28-22 Q-26-26-20-26 L20-26 Q26-26 28-22 L34-8 L-34-8Z" fill="#42A5F5"/>
<path d="M-28-22 Q-26-26-20-26 L0-26 L0-8 L-34-8Z" fill="#64B5F6"/>
<line x1="0" y1="-26" x2="0" y2="-8" stroke="#1565C0" stroke-width="1.5"/>
<rect x="-46" y="-2" width="10" height="6" rx="2" fill="#FFF9C4"/>
<rect x="36" y="-2" width="10" height="6" rx="2" fill="#EF5350"/>
<circle cx="-28" cy="16" r="8" fill="#424242"/>
<circle cx="-28" cy="16" r="4.5" fill="#9E9E9E"/>
<circle cx="28" cy="16" r="8" fill="#424242"/>
<circle cx="28" cy="16" r="4.5" fill="#9E9E9E"/>
<rect x="-20" y="2" width="8" height="4" rx="1" fill="#C62828"/>
<rect x="-8" y="2" width="16" height="4" rx="1" fill="#B71C1C"/>
<rect x="12" y="2" width="8" height="4" rx="1" fill="#C62828"/>
</g>
</svg>
